<svg width="24" height="26" viewBox="0 0 24 26" fill="none" xmlns="http://www.w3.org/2000/svg">
<mask id="mask0_197_59" style="mask-type:alpha" maskUnits="userSpaceOnUse" x="0" y="0" width="24" height="26">
<rect y="0.5" width="23.75" height="25" fill="#D9D9D9"/>
</mask>
<g mask="url(#mask0_197_59)">
<path d="M4.94792 22.375C4.40365 22.375 3.93772 22.171 3.55013 21.763C3.16254 21.355 2.96875 20.8646 2.96875 20.2917V5.70833C2.96875 5.13542 3.16254 4.64497 3.55013 4.23698C3.93772 3.82899 4.40365 3.625 4.94792 3.625H18.8021C19.3464 3.625 19.8123 3.82899 20.1999 4.23698C20.5875 4.64497 20.7813 5.13542 20.7813 5.70833H12.8646C11.6936 5.70833 10.7411 6.09462 10.0072 6.86719C9.27322 7.63976 8.90625 8.64236 8.90625 9.875V16.125C8.90625 17.3576 9.27322 18.3602 10.0072 19.1328C10.7411 19.9054 11.6936 20.2917 12.8646 20.2917H20.7813C20.7813 20.8646 20.5875 21.355 20.1999 21.763C19.8123 22.171 19.3464 22.375 18.8021 22.375H4.94792ZM12.8646 18.2083C12.3203 18.2083 11.8544 18.0043 11.4668 17.5964C11.0792 17.1884 10.8854 16.6979 10.8854 16.125V9.875C10.8854 9.30208 11.0792 8.81163 11.4668 8.40365C11.8544 7.99566 12.3203 7.79167 12.8646 7.79167H19.7917C20.3359 7.79167 20.8019 7.99566 21.1895 8.40365C21.577 8.81163 21.7708 9.30208 21.7708 9.875V16.125C21.7708 16.6979 21.577 17.1884 21.1895 17.5964C20.8019 18.0043 20.3359 18.2083 19.7917 18.2083H12.8646ZM15.8333 14.5625C16.2622 14.5625 16.6168 14.4149 16.8971 14.1198C17.1775 13.8247 17.3177 13.4514 17.3177 13C17.3177 12.5486 17.1775 12.1753 16.8971 11.8802C16.6168 11.5851 16.2622 11.4375 15.8333 11.4375C15.4045 11.4375 15.0499 11.5851 14.7695 11.8802C14.4891 12.1753 14.349 12.5486 14.349 13C14.349 13.4514 14.4891 13.8247 14.7695 14.1198C15.0499 14.4149 15.4045 14.5625 15.8333 14.5625Z" fill="white"/>
</g>
</svg>
