<svg width="24" height="26" viewBox="0 0 24 26" fill="none" xmlns="http://www.w3.org/2000/svg">
<mask id="mask0_258_655" style="mask-type:alpha" maskUnits="userSpaceOnUse" x="0" y="0" width="24" height="26">
<rect y="0.5" width="23.75" height="25" fill="#D9D9D9"/>
</mask>
<g mask="url(#mask0_258_655)">
<path d="M10.8854 17.1668H12.8646V14.0418H15.8333V11.9585H12.8646V8.8335H10.8854V11.9585H7.91667V14.0418H10.8854V17.1668ZM11.875 23.4168C11.6111 23.4168 11.3596 23.3691 11.1204 23.2736C10.8813 23.1781 10.671 23.0262 10.4896 22.8179L2.59766 14.4845C2.41623 14.2762 2.2678 14.0462 2.15235 13.7944C2.03689 13.5427 1.97917 13.2779 1.97917 13.0002C1.97917 12.7224 2.03689 12.4576 2.15235 12.2059C2.2678 11.9542 2.41623 11.7328 2.59766 11.5418L10.4896 3.2085C10.6875 3.00016 10.9019 2.84391 11.1328 2.73975C11.3637 2.63558 11.6111 2.5835 11.875 2.5835C12.1389 2.5835 12.3945 2.63558 12.6419 2.73975C12.8893 2.84391 13.1037 3.00016 13.2852 3.2085L21.1523 11.5418C21.3338 11.7502 21.4822 11.9759 21.5977 12.2189C21.7131 12.462 21.7708 12.7224 21.7708 13.0002C21.7708 13.2779 21.7172 13.5427 21.61 13.7944C21.5028 14.0462 21.3503 14.2762 21.1523 14.4845L13.2852 22.8179C13.1037 23.0088 12.8893 23.1564 12.6419 23.2606C12.3945 23.3647 12.1389 23.4168 11.875 23.4168Z" fill="white"/>
</g>
</svg>
