<svg width="24" height="26" viewBox="0 0 24 26" fill="none" xmlns="http://www.w3.org/2000/svg">
<path d="M16.875 23H18.125V19.875H21.25V18.625H18.125V15.5H16.875V18.625H13.75V19.875H16.875V23ZM17.5 25.5C15.7708 25.5 14.2969 24.8906 13.0781 23.6719C11.8594 22.4531 11.25 20.9792 11.25 19.25C11.25 17.5208 11.8594 16.0469 13.0781 14.8281C14.2969 13.6094 15.7708 13 17.5 13C19.2292 13 20.7031 13.6094 21.9219 14.8281C23.1406 16.0469 23.75 17.5208 23.75 19.25C23.75 20.9792 23.1406 22.4531 21.9219 23.6719C20.7031 24.8906 19.2292 25.5 17.5 25.5ZM0 23V8L10 0.5L20 8V10.875C19.5833 10.75 19.1667 10.6562 18.75 10.5938C18.3333 10.5312 17.9167 10.5 17.5 10.5C15.0625 10.5 12.9948 11.349 11.2969 13.0469C9.59896 14.7448 8.75 16.8125 8.75 19.25C8.75 19.9167 8.81771 20.5625 8.95312 21.1875C9.08854 21.8125 9.30208 22.4167 9.59375 23H0Z" fill="white"/>
</svg>
