<svg width="25" height="26" viewBox="0 0 25 26" fill="none" xmlns="http://www.w3.org/2000/svg">
<mask id="mask0_172_142" style="mask-type:alpha" maskUnits="userSpaceOnUse" x="0" y="0" width="25" height="26">
<rect x="0.5" y="0.5" width="23.75" height="25" fill="#D9D9D9"/>
</mask>
<g mask="url(#mask0_172_142)">
<path d="M17.3229 18.2084C17.7352 18.2084 18.0857 18.0565 18.3743 17.7526C18.663 17.4488 18.8073 17.0799 18.8073 16.6459C18.8073 16.2118 18.663 15.8429 18.3743 15.5391C18.0857 15.2353 17.7352 15.0834 17.3229 15.0834C16.9106 15.0834 16.5601 15.2353 16.2715 15.5391C15.9828 15.8429 15.8385 16.2118 15.8385 16.6459C15.8385 17.0799 15.9828 17.4488 16.2715 17.7526C16.5601 18.0565 16.9106 18.2084 17.3229 18.2084ZM17.3229 21.3334C17.8342 21.3334 18.3042 21.2075 18.7331 20.9558C19.1619 20.704 19.5082 20.3698 19.7721 19.9532C19.4093 19.7275 19.0217 19.5539 18.6094 19.4323C18.197 19.3108 17.7682 19.25 17.3229 19.25C16.8776 19.25 16.4488 19.3108 16.0364 19.4323C15.6241 19.5539 15.2365 19.7275 14.8737 19.9532C15.1376 20.3698 15.4839 20.704 15.9127 20.9558C16.3416 21.2075 16.8116 21.3334 17.3229 21.3334ZM17.3229 23.4167C15.954 23.4167 14.7871 22.9089 13.8222 21.8933C12.8574 20.8776 12.375 19.6493 12.375 18.2084C12.375 16.7674 12.8574 15.5391 13.8222 14.5235C14.7871 13.5079 15.954 13 17.3229 13C18.6918 13 19.8587 13.5079 20.8235 14.5235C21.7884 15.5391 22.2708 16.7674 22.2708 18.2084C22.2708 19.6493 21.7884 20.8776 20.8235 21.8933C19.8587 22.9089 18.6918 23.4167 17.3229 23.4167ZM12.375 23.4167C10.0824 22.8091 8.18987 21.4245 6.69725 19.2631C5.20462 17.1016 4.45831 14.7014 4.45831 12.0625V5.70837L12.375 2.58337L20.2916 5.70837V11.6198C19.8628 11.3941 19.3804 11.2205 18.8444 11.099C18.3084 10.9775 17.8012 10.9167 17.3229 10.9167C15.4097 10.9167 13.7769 11.6285 12.4245 13.0521C11.072 14.4757 10.3958 16.1945 10.3958 18.2084C10.3958 19.2848 10.5896 20.257 10.9772 21.125C11.3648 21.9931 11.8554 22.7483 12.4492 23.3907C12.4327 23.3907 12.4203 23.395 12.4121 23.4037C12.4038 23.4124 12.3915 23.4167 12.375 23.4167Z" fill="white"/>
</g>
</svg>
