<svg width="24" height="26" viewBox="0 0 24 26" fill="none" xmlns="http://www.w3.org/2000/svg">
<mask id="mask0_39_565" style="mask-type:alpha" maskUnits="userSpaceOnUse" x="0" y="0" width="24" height="26">
<rect y="0.5" width="23.75" height="25" fill="#D9D9D9"/>
</mask>
<g mask="url(#mask0_39_565)">
<path d="M5.93754 23.4166C5.39327 23.4166 4.92734 23.2126 4.53975 22.8046C4.15217 22.3966 3.95837 21.9062 3.95837 21.3333V4.66659C3.95837 4.09367 4.15217 3.60322 4.53975 3.19523C4.92734 2.78725 5.39327 2.58325 5.93754 2.58325H17.8125C18.3568 2.58325 18.8227 2.78725 19.2103 3.19523C19.5979 3.60322 19.7917 4.09367 19.7917 4.66659V21.3333C19.7917 21.9062 19.5979 22.3966 19.2103 22.8046C18.8227 23.2126 18.3568 23.4166 17.8125 23.4166H5.93754ZM10.8855 11.9583L13.3594 10.3958L15.8334 11.9583V4.66659H10.8855V11.9583Z" fill="white"/>
</g>
</svg>
