<svg width="24" height="26" viewBox="0 0 24 26" fill="none" xmlns="http://www.w3.org/2000/svg">
<mask id="mask0_197_66" style="mask-type:alpha" maskUnits="userSpaceOnUse" x="0" y="0" width="24" height="26">
<rect y="0.5" width="23.75" height="25" fill="#D9D9D9"/>
</mask>
<g mask="url(#mask0_197_66)">
<path d="M11.875 3.625C13.0955 3.625 14.2459 3.8724 15.3262 4.36719C16.4065 4.86198 17.3507 5.53472 18.1589 6.38542C18.967 7.23611 19.6061 8.23003 20.0762 9.36719C20.5462 10.5043 20.7812 11.7153 20.7812 13C20.7812 14.2847 20.5462 15.4957 20.0762 16.6328C19.6061 17.77 18.967 18.7639 18.1589 19.6146C17.3507 20.4653 16.4065 21.138 15.3262 21.6328C14.2459 22.1276 13.0955 22.375 11.875 22.375C11.1988 22.375 10.5473 22.2969 9.92057 22.1406C9.29384 21.9844 8.6671 21.7587 8.04036 21.4635L9.54948 19.875C9.92882 20.0139 10.3123 20.1181 10.6999 20.1875C11.0875 20.2569 11.4792 20.2917 11.875 20.2917C13.7882 20.2917 15.421 19.5799 16.7734 18.1562C18.1259 16.7326 18.8021 15.0139 18.8021 13C18.8021 10.9861 18.1259 9.26736 16.7734 7.84375C15.421 6.42014 13.7882 5.70833 11.875 5.70833C9.96181 5.70833 8.32899 6.42014 6.97656 7.84375C5.62413 9.26736 4.94792 10.9861 4.94792 13C4.94792 13.4167 4.9809 13.829 5.04688 14.237C5.11285 14.645 5.21181 15.0486 5.34375 15.4479L3.85938 17.0104C3.5625 16.3854 3.33984 15.7387 3.19141 15.0703C3.04297 14.4019 2.96875 13.7118 2.96875 13C2.96875 11.7153 3.20378 10.5043 3.67383 9.36719C4.14388 8.23003 4.78299 7.23611 5.59115 6.38542C6.39931 5.53472 7.34353 4.86198 8.42383 4.36719C9.50412 3.8724 10.6545 3.625 11.875 3.625ZM12.8646 17.1667V13.4167L4.35417 22.375L2.96875 20.9167L11.4792 11.9583H7.91667V9.875H14.8437V17.1667H12.8646Z" fill="white"/>
</g>
</svg>
