<svg width="285" height="256" viewBox="0 0 285 256" fill="none" xmlns="http://www.w3.org/2000/svg">
<mask id="mask0_52_927" style="mask-type:alpha" maskUnits="userSpaceOnUse" x="0" y="0" width="285" height="256">
<rect width="285" height="256" fill="#D9D9D9"/>
</mask>
<g mask="url(#mask0_52_927)">
<path d="M142.5 32C157.146 32 170.951 34.5333 183.914 39.6C196.878 44.6667 208.208 51.5556 217.906 60.2667C227.604 68.9778 235.273 79.1556 240.914 90.8C246.555 102.444 249.375 114.844 249.375 128C249.375 141.156 246.555 153.556 240.914 165.2C235.273 176.844 227.604 187.022 217.906 195.733C208.208 204.444 196.878 211.333 183.914 216.4C170.951 221.467 157.146 224 142.5 224C134.385 224 126.568 223.2 119.047 221.6C111.526 220 104.005 217.689 96.4844 214.667L114.594 198.4C119.146 199.822 123.747 200.889 128.398 201.6C133.049 202.311 137.75 202.667 142.5 202.667C165.458 202.667 185.052 195.378 201.281 180.8C217.51 166.222 225.625 148.622 225.625 128C225.625 107.378 217.51 89.7778 201.281 75.2C185.052 60.6222 165.458 53.3333 142.5 53.3333C119.542 53.3333 99.9479 60.6222 83.7188 75.2C67.4896 89.7778 59.375 107.378 59.375 128C59.375 132.267 59.7708 136.489 60.5625 140.667C61.3542 144.844 62.5417 148.978 64.125 153.067L46.3125 169.067C42.75 162.667 40.0781 156.044 38.2969 149.2C36.5156 142.356 35.625 135.289 35.625 128C35.625 114.844 38.4453 102.444 44.0859 90.8C49.7266 79.1556 57.3958 68.9778 67.0938 60.2667C76.7917 51.5556 88.1224 44.6667 101.086 39.6C114.049 34.5333 127.854 32 142.5 32ZM154.375 170.667V132.267L52.25 224L35.625 209.067L137.75 117.333H95V96H178.125V170.667H154.375Z" fill="#5EE398"/>
</g>
</svg>
