<svg width="24" height="25" viewBox="0 0 24 25" fill="none" xmlns="http://www.w3.org/2000/svg">
<mask id="mask0_257_584" style="mask-type:alpha" maskUnits="userSpaceOnUse" x="0" y="0" width="24" height="25">
<rect width="23.75" height="25" fill="#D9D9D9"/>
</mask>
<g mask="url(#mask0_257_584)">
<path d="M20.7318 23.3075L17.8125 20.2345V22.5522H15.8333V16.6668H21.4245V18.7502H19.1979L22.1172 21.8231L20.7318 23.3075ZM11.875 22.9168C10.5061 22.9168 9.21961 22.6434 8.01561 22.0965C6.81162 21.5496 5.76431 20.8075 4.87369 19.87C3.98306 18.9325 3.27798 17.83 2.75845 16.5627C2.23892 15.2953 1.97916 13.9411 1.97916 12.5002C1.97916 11.0592 2.23892 9.70502 2.75845 8.43766C3.27798 7.1703 3.98306 6.06787 4.87369 5.13037C5.76431 4.19287 6.81162 3.45068 8.01561 2.90381C9.21961 2.35693 10.5061 2.0835 11.875 2.0835C13.2439 2.0835 14.5304 2.35693 15.7344 2.90381C16.9384 3.45068 17.9857 4.19287 18.8763 5.13037C19.7669 6.06787 20.472 7.1703 20.9915 8.43766C21.5111 9.70502 21.7708 11.0592 21.7708 12.5002C21.7708 12.8474 21.7543 13.1946 21.7213 13.5418C21.6884 13.8891 21.6389 14.2363 21.5729 14.5835H19.5443C19.6267 14.2363 19.6886 13.8891 19.7298 13.5418C19.771 13.1946 19.7917 12.8474 19.7917 12.5002C19.7917 12.1529 19.771 11.8057 19.7298 11.4585C19.6886 11.1113 19.6267 10.7641 19.5443 10.4168H16.1797C16.2292 10.7641 16.2663 11.1113 16.291 11.4585C16.3157 11.8057 16.3281 12.1529 16.3281 12.5002C16.3281 12.8474 16.3157 13.1946 16.291 13.5418C16.2663 13.8891 16.2292 14.2363 16.1797 14.5835H14.2005C14.25 14.2363 14.2871 13.8891 14.3118 13.5418C14.3366 13.1946 14.3489 12.8474 14.3489 12.5002C14.3489 12.1529 14.3366 11.8057 14.3118 11.4585C14.2871 11.1113 14.25 10.7641 14.2005 10.4168H9.54947C9.49999 10.7641 9.46288 11.1113 9.43814 11.4585C9.4134 11.8057 9.40103 12.1529 9.40103 12.5002C9.40103 12.8474 9.4134 13.1946 9.43814 13.5418C9.46288 13.8891 9.49999 14.2363 9.54947 14.5835H12.8646V16.6668H9.99478C10.1927 17.4134 10.4483 18.1295 10.7617 18.8153C11.0751 19.501 11.4462 20.1564 11.875 20.7814C12.2049 20.7814 12.5347 20.7597 12.8646 20.7163C13.1944 20.6729 13.5243 20.6338 13.8542 20.5991V22.7345C13.5243 22.7693 13.1944 22.8083 12.8646 22.8517C12.5347 22.8951 12.2049 22.9168 11.875 22.9168ZM4.20572 14.5835H7.5703C7.52082 14.2363 7.48371 13.8891 7.45897 13.5418C7.43423 13.1946 7.42186 12.8474 7.42186 12.5002C7.42186 12.1529 7.43423 11.8057 7.45897 11.4585C7.48371 11.1113 7.52082 10.7641 7.5703 10.4168H4.20572C4.12325 10.7641 4.0614 11.1113 4.02017 11.4585C3.97894 11.8057 3.95832 12.1529 3.95832 12.5002C3.95832 12.8474 3.97894 13.1946 4.02017 13.5418C4.0614 13.8891 4.12325 14.2363 4.20572 14.5835ZM5.04686 8.3335H7.96614C8.11457 7.69113 8.30012 7.06179 8.52278 6.44548C8.74543 5.82916 9.0052 5.22586 9.30207 4.63558C8.39496 4.94808 7.57855 5.42117 6.85285 6.05485C6.12716 6.68853 5.52516 7.44808 5.04686 8.3335ZM9.30207 20.3647C9.0052 19.7745 8.74543 19.1712 8.52278 18.5548C8.30012 17.9385 8.11457 17.3092 7.96614 16.6668H5.04686C5.52516 17.5522 6.12716 18.3118 6.85285 18.9455C7.57855 19.5792 8.39496 20.0522 9.30207 20.3647ZM9.99478 8.3335H13.7552C13.5573 7.58697 13.3016 6.87082 12.9883 6.18506C12.6749 5.49929 12.3038 4.84391 11.875 4.21891C11.4462 4.84391 11.0751 5.49929 10.7617 6.18506C10.4483 6.87082 10.1927 7.58697 9.99478 8.3335ZM15.7838 8.3335H18.7031C18.2248 7.44808 17.6228 6.68853 16.8971 6.05485C16.1714 5.42117 15.355 4.94808 14.4479 4.63558C14.7448 5.22586 15.0045 5.82916 15.2272 6.44548C15.4499 7.06179 15.6354 7.69113 15.7838 8.3335Z" fill="white"/>
</g>
</svg>
