<svg width="25" height="26" viewBox="0 0 25 26" fill="none" xmlns="http://www.w3.org/2000/svg">
<mask id="mask0_172_135" style="mask-type:alpha" maskUnits="userSpaceOnUse" x="0" y="0" width="25" height="26">
<rect x="0.75" y="0.5" width="23.75" height="25" fill="#D9D9D9"/>
</mask>
<g mask="url(#mask0_172_135)">
<path d="M11.7344 20.2917H13.4661V18.9896C14.2908 18.8334 15 18.4948 15.5937 17.974C16.1875 17.4532 16.4844 16.6806 16.4844 15.6563C16.4844 14.9271 16.2864 14.2587 15.8906 13.6511C15.4948 13.0434 14.7031 12.5139 13.5156 12.0625C12.526 11.7153 11.8416 11.4115 11.4622 11.1511C11.0829 10.8907 10.8932 10.5348 10.8932 10.0834C10.8932 9.63199 11.0458 9.27608 11.3509 9.01567C11.656 8.75525 12.0972 8.62504 12.6745 8.62504C13.2022 8.62504 13.6146 8.75959 13.9114 9.02869C14.2083 9.29778 14.4227 9.63198 14.5547 10.0313L16.138 9.35421C15.9566 8.74657 15.6226 8.21705 15.1361 7.76567C14.6495 7.31428 14.1094 7.06254 13.5156 7.01046V5.70837H11.7838V7.01046C10.9592 7.20143 10.316 7.58337 9.85416 8.15629C9.39235 8.72921 9.16145 9.37157 9.16145 10.0834C9.16145 10.8993 9.38823 11.5591 9.84179 12.0625C10.2953 12.566 11.0087 13 11.9818 13.3646C13.0208 13.7639 13.7424 14.1198 14.1465 14.4323C14.5506 14.7448 14.7526 15.1528 14.7526 15.6563C14.7526 16.2292 14.5588 16.6502 14.1712 16.9193C13.7836 17.1884 13.3177 17.323 12.7734 17.323C12.2292 17.323 11.7467 17.145 11.3262 16.7891C10.9056 16.4332 10.5963 15.8993 10.3984 15.1875L8.76561 15.8646C8.99652 16.698 9.35524 17.3707 9.84179 17.8829C10.3283 18.395 10.9592 18.7466 11.7344 18.9375V20.2917ZM12.625 23.4167C11.2561 23.4167 9.96961 23.1433 8.76561 22.5964C7.56162 22.0495 6.51431 21.3073 5.62369 20.3698C4.73306 19.4323 4.02798 18.3299 3.50845 17.0625C2.98892 15.7952 2.72916 14.441 2.72916 13C2.72916 11.5591 2.98892 10.2049 3.50845 8.93754C4.02798 7.67018 4.73306 6.56775 5.62369 5.63025C6.51431 4.69275 7.56162 3.95056 8.76561 3.40369C9.96961 2.85681 11.2561 2.58337 12.625 2.58337C13.9939 2.58337 15.2804 2.85681 16.4844 3.40369C17.6884 3.95056 18.7357 4.69275 19.6263 5.63025C20.5169 6.56775 21.222 7.67018 21.7415 8.93754C22.2611 10.2049 22.5208 11.5591 22.5208 13C22.5208 14.441 22.2611 15.7952 21.7415 17.0625C21.222 18.3299 20.5169 19.4323 19.6263 20.3698C18.7357 21.3073 17.6884 22.0495 16.4844 22.5964C15.2804 23.1433 13.9939 23.4167 12.625 23.4167Z" fill="white"/>
</g>
</svg>
