<svg width="24" height="26" viewBox="0 0 24 26" fill="none" xmlns="http://www.w3.org/2000/svg">
<mask id="mask0_39_622" style="mask-type:alpha" maskUnits="userSpaceOnUse" x="0" y="0" width="24" height="26">
<rect y="0.5" width="23.75" height="25" fill="#D9D9D9"/>
</mask>
<g mask="url(#mask0_39_622)">
<path d="M6.92717 17.1667C7.20755 17.1667 7.44257 17.0669 7.63224 16.8673C7.82191 16.6676 7.91675 16.4202 7.91675 16.1251C7.91675 15.8299 7.82191 15.5825 7.63224 15.3829C7.44257 15.1832 7.20755 15.0834 6.92717 15.0834C6.64678 15.0834 6.41176 15.1832 6.22209 15.3829C6.03242 15.5825 5.93758 15.8299 5.93758 16.1251C5.93758 16.4202 6.03242 16.6676 6.22209 16.8673C6.41176 17.0669 6.64678 17.1667 6.92717 17.1667ZM5.93758 14.0417H7.91675V8.83342H5.93758V14.0417ZM9.89592 16.1251H17.8126V14.0417H9.89592V16.1251ZM9.89592 11.9584H17.8126V9.87508H9.89592V11.9584ZM3.95841 21.3334C3.41414 21.3334 2.94822 21.1294 2.56063 20.7214C2.17304 20.3135 1.97925 19.823 1.97925 19.2501V6.75008C1.97925 6.17716 2.17304 5.68671 2.56063 5.27873C2.94822 4.87074 3.41414 4.66675 3.95841 4.66675H19.7917C20.336 4.66675 20.8019 4.87074 21.1895 5.27873C21.5771 5.68671 21.7709 6.17716 21.7709 6.75008V19.2501C21.7709 19.823 21.5771 20.3135 21.1895 20.7214C20.8019 21.1294 20.336 21.3334 19.7917 21.3334H3.95841Z" fill="white"/>
</g>
</svg>
