<svg width="285" height="256" viewBox="0 0 285 256" fill="none" xmlns="http://www.w3.org/2000/svg">
<mask id="mask0_52_967" style="mask-type:alpha" maskUnits="userSpaceOnUse" x="0" y="0" width="285" height="256">
<rect width="285" height="256" fill="#D9D9D9"/>
</mask>
<g mask="url(#mask0_52_967)">
<path d="M83.125 170.667C86.4896 170.667 89.3099 169.645 91.5859 167.6C93.862 165.556 95 163.022 95 160C95 156.978 93.862 154.445 91.5859 152.4C89.3099 150.356 86.4896 149.333 83.125 149.333C79.7604 149.333 76.9401 150.356 74.6641 152.4C72.388 154.445 71.25 156.978 71.25 160C71.25 163.022 72.388 165.556 74.6641 167.6C76.9401 169.645 79.7604 170.667 83.125 170.667ZM71.25 138.667H95V85.3334H71.25V138.667ZM118.75 160H213.75V138.667H118.75V160ZM118.75 117.333H213.75V96.0001H118.75V117.333ZM47.5 213.333C40.9687 213.333 35.3776 211.245 30.7266 207.067C26.0755 202.889 23.75 197.867 23.75 192V64.0001C23.75 58.1334 26.0755 53.1112 30.7266 48.9334C35.3776 44.7556 40.9687 42.6667 47.5 42.6667H237.5C244.031 42.6667 249.622 44.7556 254.273 48.9334C258.924 53.1112 261.25 58.1334 261.25 64.0001V192C261.25 197.867 258.924 202.889 254.273 207.067C249.622 211.245 244.031 213.333 237.5 213.333H47.5Z" fill="#E40686"/>
</g>
</svg>
