<svg width="35" height="36" viewBox="0 0 35 36" fill="none" xmlns="http://www.w3.org/2000/svg">
<path d="M17.4998 35.5C26.957 35.5 34.6236 27.665 34.6236 18C34.6236 8.33502 26.957 0.5 17.4998 0.5C8.04258 0.5 0.375977 8.33502 0.375977 18C0.375977 27.665 8.04258 35.5 17.4998 35.5Z" fill="#2775C9"/>
<path d="M17.2325 30.5776C10.2867 30.5776 4.65723 24.8245 4.65723 17.7261C4.65723 10.6276 10.2867 4.87451 17.2325 4.87451C24.1784 4.87451 29.8079 10.6276 29.8079 17.7261C29.8079 21.1345 28.483 24.4034 26.1246 26.8135C23.7663 29.2236 20.5677 30.5776 17.2325 30.5776ZM16.4834 12.9573C15.7953 12.9922 15.1449 13.2887 14.6597 13.7885C14.1746 14.2883 13.8898 14.9555 13.8613 15.6589C13.8613 16.9823 14.6533 17.8464 16.3335 18.2073L17.5108 18.4917C18.656 18.7651 19.1269 19.1589 19.1269 19.8261C19.1269 20.4933 18.3028 21.1495 17.2325 21.1495C16.8524 21.1851 16.4701 21.1107 16.1294 20.9347C15.7887 20.7586 15.5034 20.4882 15.3061 20.1542C15.2477 20.0275 15.1554 19.9202 15.0399 19.8447C14.9244 19.7693 14.7903 19.7287 14.6533 19.7276H14.0218C13.9733 19.7368 13.927 19.7557 13.8856 19.7833C13.8442 19.8108 13.8086 19.8465 13.7807 19.8882C13.7529 19.9298 13.7334 19.9767 13.7233 20.0261C13.7133 20.0756 13.7129 20.1265 13.7222 20.1761C13.876 20.8176 14.2336 21.3889 14.739 21.8006C15.2445 22.2123 15.8692 22.441 16.5155 22.4511V23.3698C16.5155 23.5743 16.595 23.7705 16.7365 23.9151C16.878 24.0597 17.0699 24.1409 17.27 24.1409C17.4701 24.1409 17.662 24.0597 17.8035 23.9151C17.945 23.7705 18.0245 23.5743 18.0245 23.3698V22.4401C18.7553 22.4317 19.4539 22.132 19.9716 21.6049C20.4894 21.0778 20.7853 20.365 20.7964 19.6183C20.7964 18.2292 20.0152 17.4308 18.1637 17.0261L17.0934 16.7855C16.0232 16.512 15.5202 16.1511 15.5202 15.5386C15.5202 14.9261 16.1623 14.2479 17.2325 14.2479C17.5696 14.212 17.9096 14.2765 18.2116 14.4337C18.5136 14.5909 18.7645 14.8341 18.9342 15.1339C19.003 15.2836 19.1119 15.4103 19.2483 15.4994C19.3847 15.5884 19.543 15.6362 19.7048 15.637H20.2078C20.3222 15.6084 20.421 15.5351 20.483 15.4329C20.5451 15.3306 20.5654 15.2075 20.5396 15.0901C20.3946 14.4978 20.0703 13.9674 19.6128 13.5746C19.1554 13.1818 18.5883 12.9466 17.9924 12.9026V12.1479C17.9924 11.9434 17.9129 11.7473 17.7714 11.6027C17.6299 11.4581 17.438 11.3769 17.2379 11.3769C17.0378 11.3769 16.8459 11.4581 16.7044 11.6027C16.5629 11.7473 16.4834 11.9434 16.4834 12.1479V12.9573ZM7.80373 17.7261C7.80496 19.7408 8.42551 21.7043 9.57774 23.3391C10.73 24.9739 12.3557 26.1975 14.2252 26.837H14.375C14.5027 26.837 14.6252 26.7852 14.7156 26.6929C14.8059 26.6006 14.8566 26.4754 14.8566 26.3448V26.1151C14.857 25.9115 14.7982 25.7124 14.6876 25.543C14.5771 25.3736 14.4199 25.2415 14.2359 25.1636C12.7799 24.563 11.5328 23.5315 10.6546 22.2014C9.77642 20.8713 9.30721 19.3033 9.30721 17.6987C9.30721 16.0942 9.77642 14.5262 10.6546 13.1961C11.5328 11.866 12.7799 10.8345 14.2359 10.2339C14.4191 10.1578 14.5759 10.0278 14.6865 9.86023C14.797 9.69271 14.8563 9.49533 14.8566 9.29326V9.0417C14.8573 8.96784 14.8406 8.89489 14.8078 8.82905C14.775 8.76321 14.7272 8.70642 14.6684 8.66349C14.6096 8.62055 14.5415 8.59275 14.4699 8.58243C14.3984 8.57211 14.3254 8.57957 14.2573 8.6042C12.38 9.23868 10.7461 10.4615 9.58764 12.099C8.42914 13.7365 7.80496 15.7054 7.80373 17.7261ZM26.6614 17.7261C26.6579 15.7132 26.0363 13.7522 24.8842 12.1195C23.7321 10.4869 22.1077 9.26498 20.2399 8.62607H20.0794C19.946 8.62607 19.818 8.68023 19.7237 8.77664C19.6294 8.87305 19.5764 9.0038 19.5764 9.14014V9.3042C19.5807 9.51515 19.6446 9.72032 19.7605 9.89498C19.8763 10.0696 20.0391 10.2063 20.2292 10.2886C21.6818 10.8909 22.9256 11.9225 23.8012 13.2514C24.6769 14.5802 25.1446 16.1459 25.1446 17.748C25.1446 19.35 24.6769 20.9157 23.8012 22.2445C22.9256 23.5734 21.6818 24.605 20.2292 25.2073C20.0427 25.2904 19.8832 25.4261 19.7695 25.5985C19.6558 25.7709 19.5925 25.9729 19.5871 26.1808V26.3667C19.588 26.4478 19.6077 26.5275 19.6445 26.5993C19.6813 26.6712 19.7342 26.7331 19.7989 26.78C19.8636 26.8269 19.9383 26.8576 20.0168 26.8694C20.0953 26.8812 20.1754 26.8738 20.2506 26.848C22.1199 26.206 23.7445 24.98 24.8948 23.3431C26.0452 21.7063 26.6631 19.7414 26.6614 17.7261Z" fill="white"/>
</svg>
