<svg width="24" height="25" viewBox="0 0 24 25" fill="none" xmlns="http://www.w3.org/2000/svg">
<mask id="mask0_42_834" style="mask-type:alpha" maskUnits="userSpaceOnUse" x="0" y="0" width="24" height="25">
<rect width="23.75" height="25" fill="#D9D9D9"/>
</mask>
<g mask="url(#mask0_42_834)">
<path d="M11.875 16.6666L13.2604 15.2083L11.6771 13.5416H15.8333V11.4583H11.6771L13.2604 9.79158L11.875 8.33325L7.91666 12.4999L11.875 16.6666ZM11.875 22.9166C10.5061 22.9166 9.21961 22.6431 8.01561 22.0963C6.81162 21.5494 5.76431 20.8072 4.87369 19.8697C3.98306 18.9322 3.27798 17.8298 2.75845 16.5624C2.23892 15.2951 1.97916 13.9409 1.97916 12.4999C1.97916 11.0589 2.23892 9.70478 2.75845 8.43742C3.27798 7.17006 3.98306 6.06763 4.87369 5.13013C5.76431 4.19263 6.81162 3.45044 8.01561 2.90356C9.21961 2.35669 10.5061 2.08325 11.875 2.08325C13.2439 2.08325 14.5304 2.35669 15.7344 2.90356C16.9384 3.45044 17.9857 4.19263 18.8763 5.13013C19.7669 6.06763 20.472 7.17006 20.9915 8.43742C21.5111 9.70478 21.7708 11.0589 21.7708 12.4999C21.7708 13.9409 21.5111 15.2951 20.9915 16.5624C20.472 17.8298 19.7669 18.9322 18.8763 19.8697C17.9857 20.8072 16.9384 21.5494 15.7344 22.0963C14.5304 22.6431 13.2439 22.9166 11.875 22.9166Z" fill="white"/>
</g>
</svg>
